<svg xmlns="http://www.w3.org/2000/svg" data-name="Layer 1" viewBox="0 0 100 125" x="0px" y="0px"><title>Crack</title><path d="M75.07,21.28A4.92,4.92,0,0,1,74.74,23c-1.23,2-2.57,3.9-3.86,5.85a21.19,21.19,0,0,0-2.25,3.55C66.77,37,63.84,40.57,59,42.28A5.14,5.14,0,0,0,57.4,43a17.69,17.69,0,0,1-9.24,4c.51,2.37.89,4.59,1.48,6.75a7.55,7.55,0,0,0,1.43,2.6,6.14,6.14,0,0,1,1.26,4.7c-.15,1.54,0,3.12,0,5,4.81-2.67,9.39-5.15,13.9-7.74a11,11,0,0,1,4.73-1.44c2.49-.18,5-.6,7.45-.92l7.31-.92a1.38,1.38,0,0,1-1.41,1.48c-4.39.54-8.78,1.12-13.17,1.59a11.27,11.27,0,0,0-4.69,1.58c-3.1,1.81-6.33,3.38-9.47,5.12a26,26,0,0,0-3.3,2.21A2.26,2.26,0,0,0,53,68.32c-.3,1.37-.59,2.75-.76,4.14a29.08,29.08,0,0,0-.16,4c0,1.49.31,3,.23,4.48a10.51,10.51,0,0,1-.88,2.66l-.53,0c-.14-.32-.5-.76-.4-1,1-1.93.75-3.93.32-5.89a10.16,10.16,0,0,1,.44-5.41,5.68,5.68,0,0,0,.29-3.13,17.25,17.25,0,0,1-.56-7.2A4.72,4.72,0,0,0,49.88,57a7.81,7.81,0,0,1-1.73-4.1c-.28-1.55-.8-3.06-1.21-4.59A1.44,1.44,0,0,0,45,47.17a9.35,9.35,0,0,0-3.42,1.37c-4.05,3.43-7.69,7.21-9.2,12.54-.42,1.51-1,3-1.63,4.72,2.84.46,4.64,2.2,6.08,4.48a10.52,10.52,0,0,0,2.29,1.91,3.46,3.46,0,0,1,1,1.42,6.52,6.52,0,0,1-4.92-3.31,6.76,6.76,0,0,0-3.84-3c-2-.61-3.44.18-3.73,2.32-.18,1.32-.08,2.68-.16,4a2.9,2.9,0,0,1-.75,1.86,4.68,4.68,0,0,1-.46-1.22c-.08-.92.05-1.85,0-2.76A5.94,5.94,0,0,1,28.4,66.1a8,8,0,0,0,2.51-4.79c-2.2-1.18-4.34-2.26-6.42-3.45s-4.74-.73-6.08-3.13c3,.81,6.09,1.45,8.79,3.21a31.51,31.51,0,0,0,4.16,1.91c1.53-4.46,4.52-7.51,7.41-10.63a9.84,9.84,0,0,1,7.77-3.41A14.87,14.87,0,0,0,57.26,41.4a32.73,32.73,0,0,0-.8-5,8,8,0,0,0-2-2.74c-1.07-1.14-2.27-2.16-3.41-3.24A8.08,8.08,0,0,0,50,29.32a9.24,9.24,0,0,1-4.11-5.77c-.24-1-1.34-1.83-2.21-2.55-1.23-1-2.57-1.84-3.31-3.78,2,.33,2.83,2,4.11,2.82a24.74,24.74,0,0,1,3.41,3.39,15.44,15.44,0,0,0,3.59-4.84c1-2.12,2.15-4.13,3.25-6.18,0-.1.3-.09.64-.18.61,2.14-1.55,3.32-1.92,5.43l9.69.24c-1.56,1.45-1.62,1.46-10,1l-5,6.6c0,.08,0,.29.08.38,2.34,2.23,4.63,4.52,7.07,6.65,1.52,1.32,2.7,2.65,2.7,4.83a19.73,19.73,0,0,0,.66,3.54c2.89-.95,5.2-2.34,6.51-4.78a73.51,73.51,0,0,1,7.45-11.8,20.74,20.74,0,0,0,1.75-3.22Z"/><text x="0" y="115" fill="#000000" font-size="5px" font-weight="bold" font-family="'Helvetica Neue', Helvetica, Arial-Unicode, Arial, Sans-serif">Created by Sean Maldjian</text><text x="0" y="120" fill="#000000" font-size="5px" font-weight="bold" font-family="'Helvetica Neue', Helvetica, Arial-Unicode, Arial, Sans-serif">from the Noun Project</text></svg>